<svg width="21" height="20" viewBox="0 0 21 20" fill="#65EDCA" xmlns="http://www.w3.org/2000/svg">
<path fill-rule="evenodd" clip-rule="evenodd" d="M20.1102 9.60461C15.0266 9.60461 10.8903 5.46633 10.8903 0.380256H10.8892C10.8841 0.169574 10.7117 0 10.4994 0C10.2883 0 10.1165 0.169574 10.1108 0.380256H10.1102C10.1102 5.46633 5.97395 9.60461 0.889773 9.60461C0.675198 9.60461 0.5 9.7799 0.5 9.99515C0.5 10.2104 0.675198 10.3851 0.889773 10.3851C5.97395 10.3851 10.1102 14.5234 10.1102 19.61C10.1102 19.8247 10.2854 20 10.5006 20C10.7157 20 10.8903 19.8247 10.8903 19.61C10.8903 14.5234 15.0266 10.3851 20.1102 10.3851C20.3254 10.3851 20.5 10.2104 20.5 9.99515C20.5 9.7799 20.3254 9.60461 20.1102 9.60461Z" fill="#E5FF2E"/>
</svg>
