<svg width="25" height="24" viewBox="0 0 25 24" fill="none" xmlns="http://www.w3.org/2000/svg">
<path d="M12.75 0C9.49 0 9.083 0.015 7.803 0.072C6.525 0.132 5.655 0.333 4.89 0.63C4.101 0.936 3.431 1.347 2.764 2.014C2.097 2.681 1.685 3.35 1.38 4.14C1.083 4.905 0.881 5.775 0.822 7.053C0.762 8.333 0.75 8.74 0.75 12C0.75 15.26 0.765 15.667 0.822 16.947C0.882 18.224 1.083 19.095 1.38 19.86C1.686 20.648 2.097 21.319 2.764 21.986C3.431 22.652 4.1 23.065 4.89 23.37C5.656 23.666 6.526 23.869 7.803 23.928C9.083 23.988 9.49 24 12.75 24C16.01 24 16.417 23.985 17.697 23.928C18.974 23.868 19.845 23.666 20.61 23.37C21.398 23.064 22.069 22.652 22.736 21.986C23.402 21.319 23.815 20.651 24.12 19.86C24.416 19.095 24.619 18.224 24.678 16.947C24.738 15.667 24.75 15.26 24.75 12C24.75 8.74 24.735 8.333 24.678 7.053C24.618 5.776 24.416 4.904 24.12 4.14C23.814 3.351 23.402 2.681 22.736 2.014C22.069 1.347 21.401 0.935 20.61 0.63C19.845 0.333 18.974 0.131 17.697 0.072C16.417 0.012 16.01 0 12.75 0ZM12.75 2.16C15.953 2.16 16.335 2.176 17.6 2.231C18.77 2.286 19.405 2.48 19.827 2.646C20.389 2.863 20.787 3.123 21.209 3.542C21.628 3.962 21.888 4.361 22.105 4.923C22.269 5.345 22.465 5.98 22.518 7.15C22.575 8.416 22.588 8.796 22.588 12C22.588 15.204 22.573 15.585 22.514 16.85C22.453 18.02 22.258 18.655 22.093 19.077C21.869 19.639 21.614 20.037 21.194 20.459C20.775 20.878 20.37 21.138 19.814 21.355C19.394 21.519 18.749 21.715 17.579 21.768C16.305 21.825 15.93 21.838 12.72 21.838C9.509 21.838 9.134 21.823 7.861 21.764C6.69 21.703 6.045 21.508 5.625 21.343C5.056 21.119 4.665 20.864 4.246 20.444C3.825 20.025 3.556 19.62 3.346 19.064C3.181 18.644 2.987 17.999 2.926 16.829C2.881 15.569 2.865 15.18 2.865 11.985C2.865 8.789 2.881 8.399 2.926 7.124C2.987 5.954 3.181 5.31 3.346 4.89C3.556 4.32 3.825 3.93 4.246 3.509C4.665 3.09 5.056 2.82 5.625 2.611C6.045 2.445 6.676 2.25 7.846 2.19C9.121 2.145 9.496 2.13 12.705 2.13L12.75 2.16ZM12.75 5.838C9.345 5.838 6.588 8.598 6.588 12C6.588 15.405 9.348 18.162 12.75 18.162C16.155 18.162 18.912 15.402 18.912 12C18.912 8.595 16.152 5.838 12.75 5.838ZM12.75 16C10.54 16 8.75 14.21 8.75 12C8.75 9.79 10.54 8 12.75 8C14.96 8 16.75 9.79 16.75 12C16.75 14.21 14.96 16 12.75 16ZM20.596 5.595C20.596 6.39 19.95 7.035 19.156 7.035C18.361 7.035 17.716 6.389 17.716 5.595C17.716 4.801 18.362 4.156 19.156 4.156C19.949 4.155 20.596 4.801 20.596 5.595Z" fill="white"/>
</svg>
