<svg width="22" height="24" viewBox="0 0 22 24" fill="none" xmlns="http://www.w3.org/2000/svg">
<path d="M11.2751 0.02C12.5851 0 13.8851 0.01 15.1851 0C15.2651 1.53 15.8151 3.09 16.9351 4.17C18.0551 5.28 19.6351 5.79 21.1751 5.96V9.99C19.7351 9.94 18.2851 9.64 16.9751 9.02C16.4051 8.76 15.8751 8.43 15.3551 8.09C15.3451 11.01 15.3651 13.93 15.3351 16.84C15.2551 18.24 14.7951 19.63 13.9851 20.78C12.6751 22.7 10.4051 23.95 8.07512 23.99C6.64512 24.07 5.21512 23.68 3.99512 22.96C1.97512 21.77 0.55512 19.59 0.34512 17.25C0.32512 16.75 0.31512 16.25 0.33512 15.76C0.51512 13.86 1.45512 12.04 2.91512 10.8C4.57512 9.36 6.89512 8.67 9.06512 9.08C9.08512 10.56 9.02512 12.04 9.02512 13.52C8.03512 13.2 6.87512 13.29 6.00512 13.89C5.37512 14.3 4.89512 14.93 4.64512 15.64C4.43512 16.15 4.49512 16.71 4.50512 17.25C4.74512 18.89 6.32512 20.27 8.00512 20.12C9.12512 20.11 10.1951 19.46 10.7751 18.51C10.9651 18.18 11.1751 17.84 11.1851 17.45C11.2851 15.66 11.2451 13.88 11.2551 12.09C11.2651 8.06 11.2451 4.04 11.2751 0.02Z" fill="white"/>
</svg>
